<?xml version="1.0" encoding="utf-8"?>
<!-- Generator: Adobe Illustrator 25.4.1, SVG Export Plug-In . SVG Version: 6.00 Build 0)  -->
<svg version="1.1" id="Layer_1" xmlns="http://www.w3.org/2000/svg" xmlns:xlink="http://www.w3.org/1999/xlink" x="0px" y="0px"
	 viewBox="0 0 1178.7 894.2" style="enable-background:new 0 0 1178.7 894.2;" xml:space="preserve">
<style type="text/css">
	.st0{fill:#002B5F;stroke:#000000;stroke-width:23;stroke-miterlimit:10;}
	.st1{fill:none;stroke:#27AAE1;stroke-width:12.7183;stroke-miterlimit:9.999;}
	.st2{fill:none;stroke:#27AAE1;stroke-width:12.7195;stroke-miterlimit:10;}
	.st3{fill:none;stroke:#27AAE1;stroke-width:12.7193;stroke-miterlimit:9.9998;}
	.st4{stroke:#000000;stroke-width:23;stroke-miterlimit:10;}
	.st5{fill:#FFFFFF;stroke:#000000;stroke-width:11.5;stroke-miterlimit:10;}
	.st6{fill:#ED1C24;}
	.st7{font-family:'ArialMT';}
	.st8{font-size:94.0179px;}
</style>
<path class="st0" d="M1162.6,105.5v659.9c0,0.8-0.6,1.3-1.2,1.3H36.8c-0.7,0-1.2-0.7-1.2-1.3V105.5c0-44.9,32.5-81.3,72.7-81.3H1090
	C1130.1,24.2,1162.6,60.5,1162.6,105.5z"/>
<ellipse transform="matrix(0.6861 -0.7275 0.7275 0.6861 -100.0053 559.2071)" class="st1" cx="598" cy="395.5" rx="297.7" ry="51.3"/>
<ellipse class="st2" cx="598.1" cy="395.4" rx="48.5" ry="314.9"/>
<ellipse class="st2" cx="598.1" cy="395.4" rx="281.5" ry="54.3"/>
<ellipse transform="matrix(0.7478 -0.6639 0.6639 0.7478 -111.698 496.7961)" class="st3" cx="598.1" cy="395.4" rx="51.1" ry="298.7"/>
<path class="st4" d="M1162.6,768v45.6c0,31.1-22.5,56.4-50.4,56.4H86c-27.8,0-50.4-25.2-50.4-56.4V768c0-0.8,0.6-1.3,1.2-1.3h1124.5
	C1162,766.7,1162.6,767.3,1162.6,768z"/>
<ellipse class="st5" cx="598.1" cy="818.4" rx="19.2" ry="21.5"/>
<text transform="matrix(1.7767 0 0 1 571.1599 423.8487)" class="st6 st7 st8">t</text>
</svg>
