<?xml version="1.0" encoding="utf-8"?>
<!-- Generator: Adobe Illustrator 25.4.1, SVG Export Plug-In . SVG Version: 6.00 Build 0)  -->
<svg version="1.1" id="Layer_1" xmlns="http://www.w3.org/2000/svg" xmlns:xlink="http://www.w3.org/1999/xlink" x="0px" y="0px"
	 viewBox="0 0 20 20" style="enable-background:new 0 0 20 20;" xml:space="preserve">
<style type="text/css">
	.st0{fill:#FFFFFF;}
	.st1{fill:none;stroke:#000000;stroke-width:1.3817;stroke-linecap:round;stroke-miterlimit:10;}
</style>
<g>
	<path class="st0" d="M6,16.8c-1.6,0-2.8-1.3-2.8-2.8V6c0-1.6,1.3-2.8,2.8-2.8h8c1.6,0,2.8,1.3,2.8,2.8v8c0,1.6-1.3,2.8-2.8,2.8H6z"
		/>
	<path d="M14,4C15.1,4,16,4.9,16,6v8c0,1.1-0.9,2.1-2.1,2.1H6C4.9,16,4,15.1,4,14V6C4,4.9,4.9,4,6,4H14 M14,2.5H6
		c-2,0-3.6,1.6-3.6,3.6v8c0,2,1.6,3.6,3.6,3.6h8c2,0,3.6-1.6,3.6-3.6V6C17.5,4.1,15.9,2.5,14,2.5L14,2.5z"/>
</g>
<g>
	<g>
		<line class="st1" x1="5.8" y1="6.4" x2="14.2" y2="6.4"/>
	</g>
	<g>
		<line class="st1" x1="5.8" y1="10" x2="14.2" y2="10"/>
	</g>
	<g>
		<line class="st1" x1="5.8" y1="13.6" x2="14.2" y2="13.6"/>
	</g>
</g>
</svg>
