<?xml version="1.0" encoding="utf-8"?>
<!-- Generator: Adobe Illustrator 25.4.1, SVG Export Plug-In . SVG Version: 6.00 Build 0)  -->
<svg version="1.1" id="Layer_1" xmlns="http://www.w3.org/2000/svg" xmlns:xlink="http://www.w3.org/1999/xlink" x="0px" y="0px"
	 viewBox="0 0 50 50" style="enable-background:new 0 0 50 50;" xml:space="preserve">
<style type="text/css">
	.st0{fill:#002B5F;}
	.st1{fill:#FFFFFF;}
	.st2{fill:#002B5F;stroke:#FFFFFF;stroke-width:2.5909;stroke-linecap:round;stroke-linejoin:round;stroke-miterlimit:10;}
</style>
<circle class="st0" cx="25" cy="25" r="25"/>
<g>
	<path class="st1" d="M25.98,11.3v5.98h7.17v2.93h-7.17v11.3c0,2.61,0.98,4.02,3.7,4.02c1.3,0,2.28-0.11,2.93-0.22l0.22,2.83
		c-0.98,0.33-2.5,0.54-4.46,0.54c-2.28,0-4.24-0.54-5.43-1.63c-1.41-1.09-1.96-2.93-1.96-5.43V20.22h-4.24v-2.93h4.24v-5L25.98,11.3
		z"/>
</g>
<g>
	<polyline class="st2" points="14.35,16.3 5.76,25 14.35,33.7 	"/>
	<polyline class="st2" points="35.65,33.7 44.24,25 35.65,16.3 	"/>
</g>
</svg>
